# xmcd CD database file
#
# Track frame offsets:
#	150
#	33103
#	52788
#	66858
#	83348
#	97703
#	118545
#	141020
#	162233
#	178693
#	199948
#	217708
#
# Disc length: 3278 seconds
#
# Revision: 0
# Processed by: cddbd v1.5PL3 Copyright (c) Steve Scherf et al.
# Submitted via: CDex 1.60beta1
#
DISCID=8b0ccc0c
DTITLE=Everett Greene - At Last
DYEAR=1994
DGENRE=Jazz
TTITLE0=Folks Who Live On The Hill
TTITLE1=If You Went Away
TTITLE2=Do Nothing 'Til You Hear From Me
TTITLE3=Whispering Grass
TTITLE4=Nobody Does It Better
TTITLE5=It Never Entered My Mind
TTITLE6=Blues, The Mother Of Sin
TTITLE7=Little Mama
TTITLE8=Lush Life
TTITLE9=Old Folks
TTITLE10=Watch What Happens
TTITLE11=Spring Can Really Hang You Up The Most
EXTD=YEAR: 1994
EXTT0=
EXTT1=
EXTT2=
EXTT3=
EXTT4=
EXTT5=
EXTT6=
EXTT7=
EXTT8=
EXTT9=
EXTT10=
EXTT11=
PLAYORDER=
